<?xml version="1.0" standalone="no"?>
<!DOCTYPE svg PUBLIC "-//W3C//DTD SVG 20010904//EN"
 "http://www.w3.org/TR/2001/REC-SVG-20010904/DTD/svg10.dtd">
<svg version="1.0" xmlns="http://www.w3.org/2000/svg"
 width="512.000000pt" height="512.000000pt" viewBox="0 0 512.000000 512.000000"
 preserveAspectRatio="xMidYMid meet">
<metadata>
Created by potrace 1.14, written by Peter Selinger 2001-2017
</metadata>
<g transform="translate(0.000000,512.000000) scale(0.100000,-0.100000)"
fill="#000000" stroke="none">
<path d="M2335 5084 c-313 -36 -516 -87 -763 -190 -752 -315 -1318 -988 -1497
-1780 -43 -194 -58 -341 -58 -574 0 -242 20 -405 74 -621 85 -337 267 -701
489 -975 82 -101 273 -292 374 -374 331 -268 751 -458 1167 -529 703 -120
1397 49 1977 480 134 100 389 357 494 499 258 348 419 731 485 1160 22 145 25
567 5 705 -60 402 -194 753 -408 1075 -265 398 -667 735 -1096 919 -346 148
-664 213 -1033 210 -99 -1 -193 -4 -210 -5z m-604 -785 c4 -13 7 -48 8 -76 1
-29 5 -53 9 -53 5 0 18 11 30 25 25 29 35 31 52 10 17 -21 4 -49 -43 -91 l-42
-38 0 -196 c1 -215 7 -320 24 -363 6 -16 20 -81 32 -145 30 -171 27 -170 70
-46 45 127 150 346 214 446 88 134 214 232 274 210 42 -17 152 -22 308 -15
131 6 146 8 151 25 3 14 10 17 26 12 78 -24 136 -87 274 -296 121 -184 140
-226 181 -403 l28 -120 22 70 c11 39 34 106 50 150 39 110 59 198 76 345 23
194 21 217 -21 269 -38 49 -42 84 -8 89 14 2 24 -5 32 -23 18 -39 36 -25 44
34 9 61 23 91 42 91 20 0 26 -23 26 -91 0 -32 3 -59 6 -59 4 0 23 19 43 42 26
29 42 40 54 35 33 -13 18 -49 -48 -118 l-65 -67 0 -64 c0 -84 -35 -368 -60
-480 -11 -50 -47 -172 -80 -271 l-61 -182 11 -175 c6 -96 14 -249 17 -339 5
-137 9 -167 23 -181 13 -13 20 -43 25 -119 4 -56 5 -104 2 -107 -26 -26 133
-190 196 -203 44 -9 81 -73 113 -196 22 -89 25 -116 22 -240 -4 -167 -17 -205
-71 -204 -69 1 -72 5 -72 115 0 97 -1 101 -40 172 -22 40 -55 85 -74 99 -18
14 -38 38 -45 52 -16 39 -53 87 -112 145 -72 71 -76 83 -69 175 12 137 -22
240 -76 226 l-25 -6 14 -67 c13 -64 10 -109 -14 -197 -3 -13 5 -35 21 -59 14
-21 20 -36 14 -34 -6 2 -21 20 -33 40 -19 33 -19 41 -8 82 15 56 16 148 1 199
-17 63 -30 44 -23 -35 4 -50 1 -93 -9 -137 -16 -70 -14 -84 16 -118 11 -13 16
-23 10 -23 -12 0 -38 29 -47 54 -3 10 1 52 9 93 10 50 13 96 9 135 -6 51 -10
61 -31 69 -34 13 -35 12 -22 -13 8 -15 10 -59 5 -147 -5 -107 -4 -129 10 -149
9 -13 14 -26 11 -29 -3 -2 -13 7 -22 21 -15 22 -16 42 -10 149 7 120 0 167
-24 167 -4 0 -11 -59 -15 -131 -6 -122 -5 -133 14 -165 13 -20 17 -34 10 -34
-6 0 -20 20 -31 45 -18 42 -19 53 -9 118 15 92 10 171 -10 175 -12 2 -15 -11
-16 -65 0 -38 -2 -101 -5 -141 -3 -62 -1 -76 14 -86 21 -16 23 -28 3 -20 -32
12 -39 58 -26 167 13 109 6 147 -25 147 -23 0 -22 -256 2 -282 18 -20 4 -25
-15 -6 -8 8 -12 54 -12 143 0 131 -6 155 -38 155 -8 0 -10 -5 -6 -12 16 -25
21 -105 12 -171 -8 -57 -7 -73 6 -92 22 -34 19 -45 -4 -16 -18 21 -20 33 -14
132 6 92 4 112 -10 134 -21 31 -42 34 -25 3 15 -28 19 -292 4 -277 -6 6 -9 59
-7 131 2 96 0 125 -13 144 -24 37 -36 28 -18 -13 12 -30 14 -54 8 -108 -10
-93 -10 -126 -1 -150 l8 -20 -17 20 c-13 15 -15 32 -11 68 3 26 9 68 12 95 6
50 -13 123 -34 130 -9 3 -10 -3 -2 -23 13 -35 13 -132 -2 -194 -10 -47 -10
-53 8 -66 10 -8 14 -15 8 -15 -6 0 -17 7 -24 15 -11 13 -11 29 -2 79 15 79 15
134 1 175 -15 43 -29 39 -21 -6 4 -21 6 -56 5 -78 -6 -163 -9 -192 -17 -178
-4 8 -4 49 0 92 13 116 2 201 -25 201 -8 0 -7 -64 3 -238 2 -35 1 -60 -3 -57
-3 4 -8 67 -11 141 -7 168 -22 190 -38 57 -11 -92 -8 -135 13 -185 4 -10 3
-18 -2 -18 -6 0 -16 25 -23 55 -10 43 -11 72 -2 137 15 107 15 108 -7 108 -17
0 -19 -10 -23 -102 -4 -73 -1 -113 9 -137 19 -49 14 -62 -7 -17 -16 34 -18 56
-13 148 5 93 4 108 -9 108 -12 0 -16 -13 -17 -62 -3 -160 -9 -220 -21 -231
-10 -10 -12 -8 -6 7 4 11 9 77 12 148 5 113 4 129 -11 134 -32 13 -38 -10 -25
-105 10 -73 10 -99 0 -136 -7 -25 -17 -48 -23 -52 -7 -4 -8 1 -3 13 21 51 24
94 14 181 -16 127 -31 105 -38 -56 -3 -71 -8 -132 -11 -136 -4 -3 -5 25 -3 62
10 186 10 223 4 223 -30 0 -43 -89 -28 -180 11 -66 6 -120 -12 -120 -6 0 -6
10 1 27 7 18 6 48 -2 98 -9 51 -9 86 -2 123 11 56 4 68 -15 27 -15 -33 -15
-119 0 -184 11 -51 2 -81 -25 -81 -5 0 -3 8 6 18 15 17 15 24 0 98 -15 73 -15
84 -1 127 18 54 4 64 -18 12 -17 -41 -18 -96 -3 -162 9 -40 9 -55 -2 -76 -13
-23 -14 -12 -14 106 0 73 4 139 8 147 13 27 -42 21 -60 -7 -13 -20 -15 -42
-10 -128 6 -93 5 -105 -13 -127 -22 -26 -27 -13 -6 15 10 13 13 43 9 121 -4
68 -2 110 6 124 9 18 9 22 -2 22 -31 0 -38 -27 -36 -149 2 -119 -6 -151 -34
-151 -5 0 -3 8 6 18 12 13 16 46 19 148 l3 131 -25 -7 c-31 -8 -36 -44 -20
-153 12 -84 3 -140 -25 -151 -20 -7 -19 2 1 21 14 14 15 34 9 147 -4 72 -9
133 -10 135 -2 1 -9 0 -16 -4 -9 -6 -10 -39 -5 -131 5 -104 4 -128 -11 -158
-9 -20 -21 -36 -26 -36 -5 0 1 15 12 33 19 31 20 44 14 165 -3 73 -10 132 -14
132 -24 0 -31 -48 -24 -167 6 -107 4 -128 -10 -149 -9 -14 -19 -23 -22 -21 -2
3 3 17 12 31 15 22 16 39 10 114 -8 87 -8 143 1 172 2 10 -3 16 -16 17 -14 1
-22 -6 -27 -25 -11 -44 -8 -133 6 -200 13 -59 13 -65 -6 -89 -10 -15 -26 -29
-34 -31 -8 -3 -4 7 10 21 27 30 28 48 11 132 -7 35 -10 85 -6 121 7 67 -5 85
-44 64 -36 -19 -44 -51 -44 -191 -1 -120 -3 -140 -20 -158 -11 -12 -24 -21
-29 -21 -6 0 0 12 14 26 23 25 24 31 24 163 0 114 3 141 18 164 19 30 9 37
-16 10 -27 -30 -40 -108 -34 -195 8 -94 -5 -134 -51 -167 -35 -24 -122 -134
-122 -153 0 -7 -20 -33 -44 -58 -24 -25 -61 -76 -82 -115 -37 -67 -38 -73 -37
-163 1 -92 1 -93 -25 -103 -14 -6 -40 -9 -56 -7 -52 5 -61 39 -61 218 0 131 4
167 23 235 31 107 78 185 112 185 17 0 50 24 108 78 l82 78 0 91 c0 75 3 95
20 116 19 23 19 32 10 119 -5 51 -10 207 -10 346 0 232 -2 256 -20 292 -30 59
-66 192 -97 361 -26 147 -28 169 -28 466 l-1 311 -52 68 c-51 66 -62 96 -42
109 20 12 50 -7 72 -46 12 -21 25 -39 29 -39 9 0 19 38 19 78 0 65 36 94 51
41z m996 -226 c-11 -11 -43 -15 -133 -16 -136 -2 -174 5 -174 31 0 17 10 18
133 14 73 -2 143 0 157 6 20 7 26 6 28 -5 2 -9 -3 -22 -11 -30z m-365 -2035
c-5 -169 -17 -196 -16 -35 0 101 7 167 17 167 1 0 0 -60 -1 -132z m900 94 c5
-15 10 -84 9 -154 0 -113 2 -129 20 -153 12 -14 19 -28 16 -31 -2 -3 -14 7
-26 22 -19 24 -21 40 -21 156 0 90 -4 139 -15 164 -8 19 -10 32 -4 28 6 -3 15
-18 21 -32z m-1217 11 c-21 -54 -24 -129 -8 -194 16 -66 15 -68 -6 -103 -13
-20 -27 -36 -33 -36 -6 0 -4 8 5 18 30 33 35 64 20 117 -10 33 -13 70 -9 106
6 58 21 109 32 109 3 0 3 -8 -1 -17z m1579 -937 c-9 -38 32 -60 99 -53 49 5
53 3 65 -21 10 -22 9 -29 -6 -46 -17 -21 -17 -21 4 -3 11 9 26 17 32 17 15 0
16 -17 2 -25 -5 -3 -10 -10 -10 -16 0 -5 9 0 20 11 25 25 45 17 29 -11 -6 -12
-8 -23 -6 -26 3 -2 8 5 12 16 8 25 22 27 47 4 23 -21 23 -36 -2 -58 -25 -22
-72 -16 -145 20 -29 14 -73 29 -99 34 -26 5 -55 16 -65 26 -18 16 -20 15 -25
-2 -3 -10 -3 0 0 22 5 37 42 135 50 135 3 0 2 -11 -2 -24z m-1978 -58 l17 -52
-25 -21 c-14 -12 -46 -25 -70 -28 -24 -3 -73 -20 -109 -37 -94 -44 -149 -38
-149 16 0 25 14 39 50 48 14 4 36 12 49 19 19 10 25 8 37 -8 8 -10 14 -14 14
-9 0 6 -5 15 -10 20 -8 8 -8 18 0 36 11 22 16 24 70 20 52 -4 61 -2 82 21 13
14 24 25 25 26 1 1 9 -22 19 -51z"/>
<path d="M2332 3893 c-17 -3 -32 -22 -53 -66 -38 -80 -37 -101 2 -48 46 64 92
79 172 55 24 -7 23 32 -2 45 -23 13 -89 21 -119 14z"/>
<path d="M2639 3847 c-19 -12 -35 -30 -37 -40 -3 -15 1 -14 43 4 77 34 143 9
185 -69 15 -29 19 -32 20 -16 0 30 -27 104 -47 126 -25 28 -120 25 -164 -5z"/>
<path d="M2383 3765 c-46 -32 -32 -115 21 -115 50 0 76 79 38 113 -23 21 -32
21 -59 2z m49 -37 c7 -19 -2 -38 -17 -38 -21 0 -28 19 -15 35 15 18 26 19 32
3z"/>
<path d="M2657 3742 c-23 -25 -21 -75 3 -97 54 -49 113 41 63 98 -21 22 -46
22 -66 -1z m41 -50 c2 -14 -2 -22 -11 -22 -17 0 -30 27 -21 41 9 16 29 4 32
-19z"/>
<path d="M2260 3685 c1 -29 34 -97 58 -118 24 -22 100 -26 113 -6 14 23 10 30
-15 23 -33 -8 -79 18 -112 63 -42 57 -44 59 -44 38z"/>
<path d="M2768 3599 c-24 -21 -48 -31 -72 -32 -38 -1 -41 -4 -27 -26 13 -21
59 1 107 50 45 46 43 49 -8 8z"/>
<path d="M2990 3547 c0 -7 5 -18 11 -24 8 -8 9 -20 1 -42 -8 -24 -8 -39 4 -66
16 -38 19 -75 6 -75 -5 0 -9 -7 -9 -15 0 -9 10 -15 24 -15 27 0 27 -7 7 104
-14 81 -14 90 0 98 21 12 20 34 0 42 -26 10 -44 7 -44 -7z"/>
<path d="M2033 3483 c-16 -6 -17 -39 -2 -48 6 -5 8 -31 3 -76 -5 -51 -3 -69 5
-69 9 0 8 -4 -2 -14 -7 -8 -14 -34 -15 -58 0 -23 2 -37 5 -29 4 10 7 11 13 1
12 -20 32 0 27 26 -2 15 1 24 8 24 8 0 10 -9 7 -25 -2 -14 0 -25 6 -25 6 0 13
12 15 28 2 15 4 5 4 -23 1 -27 -1 -42 -4 -32 -4 17 -23 24 -23 9 0 -5 -13 -7
-30 -4 -24 3 -30 1 -31 -14 0 -11 -2 -26 -3 -34 -2 -8 -6 -61 -10 -118 -6 -88
-5 -103 8 -100 8 2 15 -1 15 -7 0 -5 -7 -9 -15 -7 -9 2 -14 -6 -15 -20 0 -13
-2 -30 -3 -38 -2 -8 -6 -72 -10 -142 l-7 -128 25 0 c67 0 75 -37 17 -75 l-39
-26 17 -42 c28 -72 40 -87 69 -88 19 -1 22 -3 8 -6 -14 -4 -16 -7 -6 -13 8 -5
21 2 36 20 13 15 37 33 54 40 16 7 28 15 26 19 -3 4 4 7 14 7 10 0 16 -4 14
-8 -3 -4 -1 -8 5 -8 6 0 13 -11 17 -25 5 -21 12 -25 45 -25 l39 0 -2 -42 -1
-43 -4 38 c-5 43 -20 49 -26 10 l-4 -28 -2 28 c-1 33 -21 36 -21 3 0 -14 -4
-27 -9 -30 -4 -3 -7 9 -5 26 3 20 1 28 -5 23 -5 -6 -11 -23 -13 -39 -3 -33 -3
-33 110 -41 53 -4 72 -2 72 8 0 8 4 7 10 -3 8 -13 10 -13 10 2 0 9 -6 19 -12
21 -7 3 7 5 32 5 25 0 39 -2 33 -5 -7 -2 -13 -12 -13 -21 0 -15 2 -15 10 -2 9
13 10 13 10 0 2 -27 22 34 24 70 0 20 6 36 14 36 6 1 15 3 20 4 31 12 45 4 74
-42 10 -15 29 -28 45 -31 l28 -4 -27 -2 c-16 0 -28 -6 -28 -12 0 -17 117 -4
207 23 l74 22 -2 58 c-1 32 0 61 4 64 3 4 19 2 36 -4 22 -8 31 -7 35 1 2 7 5
2 5 -10 1 -30 19 -38 24 -11 2 13 3 8 1 -9 -1 -18 1 -33 5 -33 5 0 28 17 51
38 40 35 44 43 44 88 1 37 -3 49 -14 49 -8 0 -18 8 -22 18 -5 11 -20 17 -45
18 -26 2 -30 3 -13 6 23 4 25 7 22 45 -3 30 -1 39 8 33 7 -4 16 -2 21 6 6 10
9 11 9 2 0 -7 5 -13 10 -13 6 0 10 23 10 50 0 43 -3 50 -20 50 -17 0 -20 6
-18 38 1 36 1 36 5 5 2 -18 8 -33 14 -33 5 0 7 37 5 88 -2 48 -4 104 -5 125
-1 31 -5 37 -23 38 -19 1 -20 2 -4 6 16 4 18 12 12 61 -4 32 -7 74 -7 95 1 21
-3 36 -7 33 -5 -3 -8 16 -8 42 1 42 -1 47 -23 50 -13 2 -28 -2 -32 -10 -6 -8
-9 0 -9 25 0 38 -3 40 -50 38 -22 -1 -22 0 -6 7 21 9 12 19 -14 17 -16 -1 -16
-2 5 -80 12 -44 11 -51 -3 -62 -13 -10 -17 -10 -24 0 -6 9 -10 9 -18 -3 -8
-12 -10 -12 -10 5 -1 28 -53 77 -74 69 -9 -3 -16 -10 -16 -14 0 -5 -10 -10
-22 -12 -17 -2 -22 -9 -20 -23 26 -151 25 -168 -5 -233 -16 -35 -32 -63 -36
-63 -22 3 -27 -2 -28 -31 l-1 -33 -8 30 -7 30 -11 -25 c-8 -18 -11 -20 -11 -7
-1 10 -9 17 -22 17 -12 0 -18 -4 -13 -11 4 -7 1 -10 -7 -7 -8 3 -22 1 -31 -3
-11 -6 -20 -5 -25 4 -9 13 -85 38 -118 38 -13 0 -16 2 -7 8 9 5 6 13 -12 30
-13 12 -27 38 -30 57 -4 19 -12 34 -19 34 -9 0 -8 3 1 8 8 6 13 36 15 85 1 42
5 77 10 77 16 0 6 29 -12 35 -14 4 -37 -6 -72 -30 -29 -19 -57 -34 -63 -32 -6
2 -10 18 -8 35 2 21 -1 32 -9 32 -7 0 -4 6 7 14 10 8 17 16 14 19 -14 11 -70
34 -65 26 4 -5 0 -9 -7 -9 -8 0 -30 -16 -49 -36 l-34 -35 -5 53 c-3 29 -1 60
3 68 10 17 -4 82 -18 86 -6 1 -16 0 -22 -3z m934 -195 c-3 -8 -6 -5 -6 6 -1
11 2 17 5 13 3 -3 4 -12 1 -19z m-834 5 c-7 -2 -19 -2 -25 0 -7 3 -2 5 12 5
14 0 19 -2 13 -5z m-6 -35 c-3 -8 -6 -5 -6 6 -1 11 2 17 5 13 3 -3 4 -12 1
-19z m850 -10 c-3 -8 -6 -5 -6 6 -1 11 2 17 5 13 3 -3 4 -12 1 -19z m40 7 c0
-8 -4 -15 -9 -15 -4 0 -8 7 -8 15 0 8 4 15 8 15 5 0 9 -7 9 -15z m30 -7 c-3
-8 -6 -5 -6 6 -1 11 2 17 5 13 3 -3 4 -12 1 -19z m-695 -23 c2 -19 0 -35 -4
-35 -4 0 -8 16 -8 35 0 19 2 35 4 35 2 0 6 -16 8 -35z m645 -12 c5 3 15 2 23
-4 11 -6 4 -9 -22 -9 -30 0 -36 3 -31 16 4 11 8 12 13 4 4 -7 12 -10 17 -7z
m-817 -22 c0 -11 -49 -21 -55 -10 -3 4 7 10 22 12 16 2 29 5 31 6 1 0 2 -3 2
-8z m73 2 c-7 -2 -19 -2 -25 0 -7 3 -2 5 12 5 14 0 19 -2 13 -5z m584 1 c-3
-3 -12 -4 -19 -1 -8 3 -5 6 6 6 11 1 17 -2 13 -5z m90 0 c-3 -3 -12 -4 -19 -1
-8 3 -5 6 6 6 11 1 17 -2 13 -5z m-134 -11 c-7 -2 -19 -2 -25 0 -7 3 -2 5 12
5 14 0 19 -2 13 -5z m194 -15 c-3 -8 -6 -5 -6 6 -1 11 2 17 5 13 3 -3 4 -12 1
-19z m30 0 c-3 -8 -6 -5 -6 6 -1 11 2 17 5 13 3 -3 4 -12 1 -19z m-770 -10
c-3 -8 -6 -5 -6 6 -1 11 2 17 5 13 3 -3 4 -12 1 -19z m100 0 c-3 -8 -6 -5 -6
6 -1 11 2 17 5 13 3 -3 4 -12 1 -19z m553 -28 c5 0 11 10 13 23 4 19 4 18 6
-5 1 -22 -4 -28 -19 -28 -15 0 -20 6 -19 28 2 23 2 24 6 5 2 -13 8 -23 13 -23z
m-613 -2 c-3 -8 -6 -5 -6 6 -1 11 2 17 5 13 3 -3 4 -12 1 -19z m33 7 c0 -8 -4
-15 -10 -15 -5 0 -7 7 -4 15 4 8 8 15 10 15 2 0 4 -7 4 -15z m700 0 c0 -6 -9
-11 -20 -11 -11 0 -20 5 -20 11 0 6 9 11 20 11 11 0 20 -5 20 -11z m-830 -27
c0 -5 -4 -8 -10 -8 -5 0 -10 10 -10 23 0 18 2 19 10 7 5 -8 10 -18 10 -22z
m157 10 c-3 -8 -6 -5 -6 6 -1 11 2 17 5 13 3 -3 4 -12 1 -19z m620 -10 c-3 -7
-5 -2 -5 12 0 14 2 19 5 13 2 -7 2 -19 0 -25z m-812 12 c3 -5 1 -10 -4 -10 -6
0 -11 5 -11 10 0 6 2 10 4 10 3 0 8 -4 11 -10z m83 -32 c13 -3 12 -5 -5 -10
-21 -5 -23 -3 -22 25 1 23 3 26 6 10 2 -12 12 -23 21 -25z m789 -10 c-3 -7 -5
-2 -5 12 0 14 2 19 5 13 2 -7 2 -19 0 -25z m-840 -20 c-3 -7 -5 -2 -5 12 0 14
2 19 5 13 2 -7 2 -19 0 -25z m-27 18 c0 -3 -4 -8 -10 -11 -5 -3 -10 -1 -10 4
0 6 5 11 10 11 6 0 10 -2 10 -4z m-125 -16 c3 -5 1 -10 -4 -10 -6 0 -11 5 -11
10 0 6 2 10 4 10 3 0 8 -4 11 -10z m286 -30 c24 0 29 -4 28 -22 -1 -17 -2 -19
-6 -5 -3 10 -14 17 -29 17 -22 0 -24 -4 -23 -50 1 -28 -1 -54 -5 -57 -3 -3 -5
32 -5 78 1 46 4 74 6 62 3 -18 11 -23 34 -23z m659 36 c0 -11 -19 -15 -25 -6
-3 5 1 10 9 10 9 0 16 -2 16 -4z m17 -18 c-3 -8 -6 -5 -6 6 -1 11 2 17 5 13 3
-3 4 -12 1 -19z m-880 -10 c-3 -8 -6 -5 -6 6 -1 11 2 17 5 13 3 -3 4 -12 1
-19z m717 -50 c3 -39 9 -83 12 -97 4 -19 3 -22 -4 -12 -6 8 -13 48 -17 90 -4
42 -12 79 -19 83 -7 5 -6 8 5 8 13 0 18 -15 23 -72z m223 50 c-3 -8 -6 -5 -6
6 -1 11 2 17 5 13 3 -3 4 -12 1 -19z m-793 -13 c3 -9 0 -15 -9 -15 -9 0 -12 6
-9 15 4 8 7 15 9 15 2 0 5 -7 9 -15z m692 -15 c14 0 23 -4 19 -10 -3 -5 -11
-7 -18 -4 -8 3 -17 -7 -23 -23 -9 -26 -10 -25 -11 17 -1 25 1 39 4 33 2 -7 16
-13 29 -13z m-768 3 c-10 -2 -26 -2 -35 0 -10 3 -2 5 17 5 19 0 27 -2 18 -5z
m851 -25 c-1 -24 -3 -27 -6 -10 -2 12 -12 22 -21 23 -14 0 -13 2 3 9 11 5 21
9 23 9 1 1 1 -14 1 -31z m-976 15 c-7 -2 -21 -2 -30 0 -10 3 -4 5 12 5 17 0
24 -2 18 -5z m730 -10 c-12 -2 -24 -12 -26 -21 -3 -12 -5 -10 -6 6 -1 18 4 22
27 21 22 -1 23 -2 5 -6z m113 -2 c-5 -8 -56 -3 -56 5 0 2 14 4 31 4 16 0 28
-4 25 -9z m-164 -31 c3 -19 0 -30 -7 -30 -7 0 -10 11 -7 30 2 17 5 30 7 30 2
0 5 -13 7 -30z m-418 5 c3 -8 1 -15 -4 -15 -6 0 -10 7 -10 15 0 8 2 15 4 15 2
0 6 -7 10 -15z m-297 -27 c-3 -7 -5 -2 -5 12 0 14 2 19 5 13 2 -7 2 -19 0 -25z
m30 0 c-3 -7 -5 -2 -5 12 0 14 2 19 5 13 2 -7 2 -19 0 -25z m330 10 c-3 -8 -6
-5 -6 6 -1 11 2 17 5 13 3 -3 4 -12 1 -19z m480 0 c-3 -8 -6 -5 -6 6 -1 11 2
17 5 13 3 -3 4 -12 1 -19z m33 7 c0 -8 -4 -15 -10 -15 -5 0 -7 7 -4 15 4 8 8
15 10 15 2 0 4 -7 4 -15z m170 -14 c0 -25 -4 -29 -35 -33 -22 -2 -35 0 -35 7
0 7 12 10 30 7 27 -4 30 -1 30 22 0 14 2 26 5 26 3 0 5 -13 5 -29z m-813 -18
c-3 -10 -5 -4 -5 12 0 17 2 24 5 18 2 -7 2 -21 0 -30z m133 -18 c0 -14 -3 -16
-9 -7 -4 7 -12 12 -17 11 -5 -1 -22 0 -39 1 l-30 2 30 7 c51 11 65 8 65 -14z
m551 2 c-10 -9 -11 -8 -5 6 3 10 9 15 12 12 3 -3 0 -11 -7 -18z m-884 -19 c-3
-8 -6 -5 -6 6 -1 11 2 17 5 13 3 -3 4 -12 1 -19z m30 0 c-3 -8 -6 -5 -6 6 -1
11 2 17 5 13 3 -3 4 -12 1 -19z m66 15 c-19 -3 -34 -11 -36 -21 -3 -12 -5 -10
-6 6 -1 19 3 22 37 20 36 -1 36 -1 5 -5z m652 -11 c-11 -2 -23 -9 -27 -16 -5
-6 -8 -3 -8 10 0 18 4 20 28 16 22 -5 24 -7 7 -10z m98 11 c-13 -2 -23 -12
-23 -20 0 -9 -3 -14 -6 -10 -13 13 6 37 28 36 l23 -2 -22 -4z m-327 -99 c8 3
14 -1 14 -10 0 -9 -5 -12 -11 -8 -6 3 -15 0 -20 -7 -6 -10 -9 -11 -9 -1 0 6
-9 12 -20 12 -14 0 -18 5 -13 17 4 11 8 12 11 5 7 -23 22 -12 22 18 0 21 -5
30 -17 31 -17 1 -17 2 0 6 9 2 18 12 19 21 1 9 3 -7 5 -36 3 -42 7 -52 19 -48z
m144 84 c0 -4 -9 -8 -20 -8 -11 0 -20 4 -20 8 0 4 9 8 20 8 11 0 20 -4 20 -8z
m-90 -15 c-8 -3 -18 -11 -22 -17 -5 -7 -8 -4 -8 7 0 11 7 17 23 16 15 0 17 -2
7 -6z m-161 -30 c-1 -20 -3 -22 -6 -9 -4 15 -7 16 -14 5 -7 -11 -9 -11 -9 3 0
14 7 21 28 27 1 1 1 -11 1 -26z m28 5 c-3 -8 -6 -5 -6 6 -1 11 2 17 5 13 3 -3
4 -12 1 -19z m-410 -10 c-3 -8 -6 -5 -6 6 -1 11 2 17 5 13 3 -3 4 -12 1 -19z
m60 -30 c-3 -7 -5 -2 -5 12 0 14 2 19 5 13 2 -7 2 -19 0 -25z m273 -11 c0 -8
-12 -13 -30 -12 -38 0 -39 12 -2 18 15 2 28 5 30 6 1 0 2 -5 2 -12z m27 -9
c-3 -8 -6 -5 -6 6 -1 11 2 17 5 13 3 -3 4 -12 1 -19z m223 7 c0 -2 -13 -5 -30
-7 -19 -3 -30 0 -30 7 0 7 11 10 30 7 17 -2 30 -5 30 -7z m-370 -5 c0 -5 -5
-10 -11 -10 -5 0 -7 5 -4 10 3 6 8 10 11 10 2 0 4 -4 4 -10z m40 6 c0 -3 -4
-8 -10 -11 -5 -3 -10 -1 -10 4 0 6 5 11 10 11 6 0 10 -2 10 -4z m357 -43 c-3
-10 -5 -2 -5 17 0 19 2 27 5 18 2 -10 2 -26 0 -35z m296 40 c-7 -2 -19 -2 -25
0 -7 3 -2 5 12 5 14 0 19 -2 13 -5z m-863 -13 c0 -5 -2 -10 -4 -10 -3 0 -8 5
-11 10 -3 6 -1 10 4 10 6 0 11 -4 11 -10z m687 -27 c-3 -10 -5 -4 -5 12 0 17
2 24 5 18 2 -7 2 -21 0 -30z m33 11 c0 -14 -4 -23 -9 -20 -5 3 -7 15 -4 26 7
28 13 25 13 -6z m-453 -26 c-3 -7 -5 -2 -5 12 0 14 2 19 5 13 2 -7 2 -19 0
-25z m330 10 c-3 -8 -6 -5 -6 6 -1 11 2 17 5 13 3 -3 4 -12 1 -19z m140 0 c-3
-8 -6 -5 -6 6 -1 11 2 17 5 13 3 -3 4 -12 1 -19z m73 7 c0 -5 -11 -11 -25 -11
-14 -1 -25 4 -25 11 0 7 11 12 25 11 14 0 25 -5 25 -11z m60 -4 c0 -4 -9 -7
-20 -7 -11 0 -20 6 -20 12 0 7 8 10 20 7 11 -3 20 -8 20 -12z m-435 -1 c3 -5
1 -10 -4 -10 -6 0 -11 5 -11 10 0 6 2 10 4 10 3 0 8 -4 11 -10z m-358 -37 c-3
-10 -5 -4 -5 12 0 17 2 24 5 18 2 -7 2 -21 0 -30z m43 0 c0 -7 -4 -13 -10 -13
-5 0 -10 12 -10 28 0 21 2 24 10 12 5 -8 10 -21 10 -27z m430 27 c0 -5 -2 -10
-4 -10 -3 0 -8 5 -11 10 -3 6 -1 10 4 10 6 0 11 -4 11 -10z m-350 -12 c0 -4
-11 -8 -25 -8 -14 0 -25 -6 -25 -12 0 -9 -3 -8 -10 2 -7 11 -5 17 6 20 23 8
54 7 54 -2z m163 5 c-7 -2 -19 -2 -25 0 -7 3 -2 5 12 5 14 0 19 -2 13 -5z
m104 -25 c-3 -8 -6 -5 -6 6 -1 11 2 17 5 13 3 -3 4 -12 1 -19z m30 0 c-3 -8
-6 -5 -6 6 -1 11 2 17 5 13 3 -3 4 -12 1 -19z m-478 -15 c-1 -23 -2 -24 -6 -6
-3 16 -13 23 -36 26 -31 4 -31 4 6 5 34 2 37 0 36 -25z m328 -15 c-3 -7 -5 -2
-5 12 0 14 2 19 5 13 2 -7 2 -19 0 -25z m30 0 c-3 -7 -5 -2 -5 12 0 14 2 19 5
13 2 -7 2 -19 0 -25z m370 0 c-3 -8 -6 -5 -6 6 -1 11 2 17 5 13 3 -3 4 -12 1
-19z m30 0 c-3 -8 -6 -5 -6 6 -1 11 2 17 5 13 3 -3 4 -12 1 -19z m143 15 c-19
-3 -38 -10 -42 -16 -5 -8 -8 -6 -8 6 0 14 8 17 43 15 40 -1 40 -1 7 -5z
m-1013 -40 c-3 -10 -5 -4 -5 12 0 17 2 24 5 18 2 -7 2 -21 0 -30z m36 24 c3
-8 1 -20 -4 -28 -6 -10 -9 -7 -9 14 0 29 5 35 13 14z m580 6 c-7 -2 -21 -2
-30 0 -10 3 -4 5 12 5 17 0 24 -2 18 -5z m60 0 c-7 -2 -21 -2 -30 0 -10 3 -4
5 12 5 17 0 24 -2 18 -5z m65 0 c-10 -2 -26 -2 -35 0 -10 3 -2 5 17 5 19 0 27
-2 18 -5z m-529 -30 c-1 -22 -2 -23 -6 -8 -3 11 -10 23 -17 27 -7 5 -5 8 7 8
12 0 17 -7 16 -27z m31 2 c0 -14 -2 -25 -4 -25 -2 0 -6 11 -8 25 -3 14 -1 25
3 25 5 0 9 -11 9 -25z m238 -70 l-1 -50 -4 43 c-4 39 -6 42 -36 44 l-32 1 32
4 c25 3 31 8 27 21 -5 15 -4 15 5 2 6 -8 10 -37 9 -65z m407 -43 c-3 -3 -5 2
-5 11 0 10 -3 17 -8 17 -4 0 -5 21 -3 48 l5 47 8 -59 c4 -33 6 -62 3 -64z
m102 96 c-3 -8 -6 -5 -6 6 -1 11 2 17 5 13 3 -3 4 -12 1 -19z m-880 -10 c-3
-8 -6 -5 -6 6 -1 11 2 17 5 13 3 -3 4 -12 1 -19z m400 -30 c-2 -13 -4 -5 -4
17 -1 22 1 32 4 23 2 -10 2 -28 0 -40z m68 43 c3 -5 1 -12 -5 -16 -5 -3 -10 1
-10 9 0 18 6 21 15 7z m45 -6 c0 -2 -7 -5 -15 -9 -9 -3 -15 0 -15 9 0 9 6 12
15 9 8 -4 15 -7 15 -9z m237 9 c-3 -3 -12 -4 -19 -1 -8 3 -5 6 6 6 11 1 17 -2
13 -5z m50 -16 c-3 -8 -6 -5 -6 6 -1 11 2 17 5 13 3 -3 4 -12 1 -19z m-533 -3
c3 -8 1 -15 -4 -15 -6 0 -10 7 -10 15 0 8 2 15 4 15 2 0 6 -7 10 -15z m293 -7
c-3 -8 -6 -5 -6 6 -1 11 2 17 5 13 3 -3 4 -12 1 -19z m-397 -6 c0 -4 -17 -6
-37 -4 -65 6 -70 10 -15 11 28 0 52 -3 52 -7z m577 -29 c-3 -10 -5 -4 -5 12 0
17 2 24 5 18 2 -7 2 -21 0 -30z m-849 20 c-10 -2 -26 -2 -35 0 -10 3 -2 5 17
5 19 0 27 -2 18 -5z m109 -15 c-3 -8 -6 -5 -6 6 -1 11 2 17 5 13 3 -3 4 -12 1
-19z m847 -10 c6 -4 -2 -7 -19 -7 -16 0 -24 3 -17 6 6 2 12 12 13 21 0 14 2
14 6 2 3 -8 11 -18 17 -22z m-674 -28 c5 0 11 10 13 23 4 19 4 18 6 -5 1 -22
-4 -28 -19 -28 -15 0 -20 6 -19 28 2 23 2 24 6 5 2 -13 8 -23 13 -23z m507 -7
c-3 -10 -5 -2 -5 17 0 19 2 27 5 18 2 -10 2 -26 0 -35z m32 15 c0 -27 -2 -29
-8 -13 -5 11 -6 26 -4 33 8 21 13 13 12 -20z m-203 13 c-4 -5 -2 -11 4 -13 6
-2 6 -8 0 -18 -9 -13 -11 -13 -19 0 -6 9 -6 19 1 27 12 15 22 18 14 4z m149 0
c3 -5 1 -12 -5 -16 -5 -3 -10 1 -10 9 0 18 6 21 15 7z m-558 -53 c-2 -13 -4
-5 -4 17 -1 22 1 32 4 23 2 -10 2 -28 0 -40z m30 0 c-2 -13 -4 -5 -4 17 -1 22
1 32 4 23 2 -10 2 -28 0 -40z m340 30 c-3 -8 -6 -5 -6 6 -1 11 2 17 5 13 3 -3
4 -12 1 -19z m370 -20 c-3 -7 -5 -2 -5 12 0 14 2 19 5 13 2 -7 2 -19 0 -25z
m30 0 c-3 -7 -5 -2 -5 12 0 14 2 19 5 13 2 -7 2 -19 0 -25z m-590 16 c-3 -3
-12 -4 -19 -1 -8 3 -5 6 6 6 11 1 17 -2 13 -5z m150 -41 c-3 -10 -5 -4 -5 12
0 17 2 24 5 18 2 -7 2 -21 0 -30z m-415 -19 c-6 -35 -12 -29 -12 14 0 23 3 32
9 24 4 -7 6 -24 3 -38z m25 -16 c-2 -13 -4 -3 -4 22 0 25 2 35 4 23 2 -13 2
-33 0 -45z m163 42 c0 -5 -12 -10 -27 -9 l-28 1 25 8 c14 4 26 8 28 9 1 1 2
-3 2 -9z m566 -3 c4 10 8 10 18 1 9 -9 10 -15 2 -24 -8 -9 -13 -9 -18 0 -6 8
-11 7 -18 -4 -6 -10 -10 -11 -10 -2 0 6 -12 13 -27 13 l-28 2 28 4 c15 2 27
10 27 16 0 7 4 6 11 -3 8 -11 12 -12 15 -3z m-689 -3 c-3 -3 -12 -4 -19 -1 -8
3 -5 6 6 6 11 1 17 -2 13 -5z m167 -9 c-4 -8 -7 -15 -9 -15 -2 0 -5 7 -9 15
-3 9 0 15 9 15 9 0 12 -6 9 -15z m35 -22 c-1 -34 -2 -35 -9 -13 -11 36 -11 50
0 50 6 0 10 -17 9 -37z m28 5 c-3 -7 -5 -2 -5 12 0 14 2 19 5 13 2 -7 2 -19 0
-25z m293 15 c0 -7 -7 -10 -15 -7 -10 4 -15 0 -16 -12 0 -17 -1 -17 -8 1 -5
11 -7 22 -5 25 6 11 44 5 44 -7z m237 -30 c-3 -10 -5 -2 -5 17 0 19 2 27 5 18
2 -10 2 -26 0 -35z m86 40 c-7 -2 -21 -2 -30 0 -10 3 -4 5 12 5 17 0 24 -2 18
-5z m-400 -10 c-7 -2 -19 -2 -25 0 -7 3 -2 5 12 5 14 0 19 -2 13 -5z m-426
-25 c-3 -8 -6 -5 -6 6 -1 11 2 17 5 13 3 -3 4 -12 1 -19z m30 0 c-3 -8 -6 -5
-6 6 -1 11 2 17 5 13 3 -3 4 -12 1 -19z m756 1 c5 -3 2 -9 -7 -12 -12 -5 -16
0 -16 15 0 12 3 17 8 12 4 -5 11 -12 15 -15z m-495 -5 c15 9 20 -5 11 -34 -7
-24 -7 -24 -8 -2 -1 12 -6 22 -12 22 -6 0 -10 -12 -9 -27 4 -54 -3 -67 -9 -18
-7 56 -3 84 9 65 4 -7 12 -10 18 -6z m89 -16 c-3 -7 -5 -2 -5 12 0 14 2 19 5
13 2 -7 2 -19 0 -25z m36 17 c4 -8 2 -17 -3 -20 -6 -4 -10 3 -10 14 0 25 6 27
13 6z m-295 -19 c3 -3 -9 -6 -26 -6 -18 0 -32 4 -32 9 0 9 48 6 58 -3z m89
-38 c-2 -13 -4 -5 -4 17 -1 22 1 32 4 23 2 -10 2 -28 0 -40z m383 17 c0 -21
-4 -25 -27 -24 -24 2 -25 2 -5 6 14 3 22 12 22 24 0 10 2 19 5 19 3 0 5 -11 5
-25z m48 -18 c10 -3 7 -5 -9 -6 -24 -1 -26 2 -20 27 5 24 6 25 9 5 2 -12 11
-24 20 -26z m-705 26 c-7 -2 -19 -2 -25 0 -7 3 -2 5 12 5 14 0 19 -2 13 -5z
m204 -65 c-2 -13 -4 -3 -4 22 0 25 2 35 4 23 2 -13 2 -33 0 -45z m42 45 c-1
-10 -5 -29 -9 -43 -7 -21 -8 -19 -9 18 -1 23 4 42 9 42 6 0 10 -8 9 -17z m158
-35 c-3 -7 -5 -2 -5 12 0 14 2 19 5 13 2 -7 2 -19 0 -25z m187 25 c-5 -5 -12
-12 -16 -18 -4 -6 -8 -2 -8 8 0 9 7 17 17 17 9 0 12 -3 7 -7z m-455 -35 c-2
-30 -2 -30 -6 -6 -2 15 -12 29 -21 31 -12 3 -10 5 6 6 19 1 22 -4 21 -31z m28
-15 c-3 -10 -5 -2 -5 17 0 19 2 27 5 18 2 -10 2 -26 0 -35z m330 -13 c1 -10
-2 -22 -7 -25 -6 -4 -10 7 -10 26 0 34 12 33 17 -1z m-34 7 c3 -8 1 -20 -4
-28 -6 -10 -9 -7 -9 14 0 29 5 35 13 14z m89 -22 c-6 -34 -12 -32 -12 6 0 16
4 28 9 25 4 -3 6 -17 3 -31z m25 -12 c-3 -10 -5 -2 -5 17 0 19 2 27 5 18 2
-10 2 -26 0 -35z m93 22 c0 -8 -2 -15 -4 -15 -2 0 -6 7 -10 15 -3 8 -1 15 4
15 6 0 10 -7 10 -15z m27 -7 c-3 -8 -6 -5 -6 6 -1 11 2 17 5 13 3 -3 4 -12 1
-19z m30 -10 c-3 -7 -5 -2 -5 12 0 14 2 19 5 13 2 -7 2 -19 0 -25z m-470 16
c-3 -3 -12 -4 -19 -1 -8 3 -5 6 6 6 11 1 17 -2 13 -5z m53 -11 c0 -10 -4 -14
-8 -8 -4 6 -11 13 -16 18 -5 4 -2 7 7 7 10 0 17 -8 17 -17z m-143 -55 c-2 -13
-4 -3 -4 22 0 25 2 35 4 23 2 -13 2 -33 0 -45z"/>
<path d="M2440 2245 c0 -8 5 -15 10 -15 6 0 10 7 10 15 0 8 -4 15 -10 15 -5 0
-10 -7 -10 -15z"/>
<path d="M3392 2247 c-9 -10 -6 -17 8 -30 18 -15 20 -30 20 -129 0 -132 5
-142 94 -213 37 -30 62 -43 68 -37 6 6 -14 30 -56 67 -36 32 -68 65 -71 74 -4
9 -9 67 -11 129 -5 135 -21 177 -52 139z"/>
<path d="M3353 2213 c-9 -3 -6 -13 9 -34 19 -25 23 -47 28 -147 6 -129 9 -139
80 -199 31 -27 46 -34 57 -27 25 16 20 26 -37 72 -30 25 -60 54 -67 66 -8 13
-12 63 -13 129 0 132 -11 159 -57 140z"/>
<path d="M1809 2184 c-9 -11 -15 -50 -18 -112 l-3 -95 -77 -73 c-59 -57 -71
-74 -55 -74 11 0 31 12 45 26 13 14 38 34 55 45 50 31 67 77 59 164 -6 65 -5
75 13 93 17 17 18 23 8 31 -10 8 -17 7 -27 -5z"/>
<path d="M3322 2184 c25 -29 41 -118 35 -194 -7 -86 10 -134 68 -189 42 -40
48 -42 62 -28 14 14 10 21 -46 74 -47 45 -61 66 -62 88 -1 17 -2 68 -3 115 -2
91 -13 122 -49 141 -21 11 -21 11 -5 -7z"/>
<path d="M3292 2147 c20 -36 23 -58 24 -163 1 -132 7 -150 59 -189 18 -15 48
-49 66 -76 17 -27 33 -48 35 -46 2 2 1 20 -3 40 -4 27 -16 46 -44 68 -72 56
-84 89 -84 219 -1 125 -13 167 -53 181 l-22 8 22 -42z"/>
<path d="M1848 2157 c-13 -9 -17 -35 -20 -109 -3 -92 -5 -98 -33 -128 -16 -17
-44 -40 -62 -51 -39 -24 -49 -48 -27 -64 14 -10 23 -6 53 22 20 18 39 33 43
33 3 0 16 15 27 34 17 27 21 50 21 124 0 50 5 103 10 118 13 32 9 38 -12 21z"/>
<path d="M1885 2153 c-17 -17 -29 -94 -21 -129 4 -14 4 -47 0 -73 -5 -40 -15
-54 -67 -104 -53 -52 -58 -60 -45 -73 13 -13 21 -9 65 33 60 57 75 98 66 188
-6 62 11 165 27 165 4 0 1 -21 -7 -47 -10 -35 -13 -70 -8 -126 6 -67 4 -84
-15 -122 -11 -24 -41 -59 -64 -79 -34 -28 -45 -44 -48 -72 l-4 -37 20 28 c12
15 47 54 79 85 31 32 57 64 58 72 0 7 1 65 2 128 1 81 7 124 17 145 16 30 16
30 -13 31 -15 1 -35 -5 -42 -13z"/>
<path d="M1410 1071 c0 -6 4 -13 10 -16 6 -3 7 1 4 9 -7 18 -14 21 -14 7z"/>
<path d="M1371 1053 c7 -12 15 -20 18 -17 3 2 -3 12 -13 22 -17 16 -18 16 -5
-5z"/>
</g>
</svg>
